PathFileType	4	(x/y/z)	S04_P20_T21.trc
DataRate	CameraRate	NumFrames	NumMarkers	Units	OrigDataRate	OrigDataStartFrame	OrigNumFrames
240	240	7	51	mm	240	226	361
Frame#	Time	Sternum			R.Acromium			L.Acromium			Top.Head			R.ASIS			L.ASIS			R.PSIS			L.PSIS			R.Great.Tro			L.Great.Tro			R.Iliac.Crest			L.Iliac.Crest			V.Sacral			R.Thigh.Upper.Post			R.Thigh.Lower.Ant			R.Thigh.Lower.Post			R.Thigh.Upper.Ant			R.Knee.Lat			R.Knee.Med			R.Shank.Upper.Post			R.Shank.Lower.Ant			R.Shank.Lower.Post			R.Shank.Upper.Ant			R.Ankle.Lat			R.Ankle.Med			R.Heel.Upper			R.Heel.Med			R.Heel.Lat			R.Toe.Lat			R.Toe.Med			R.Toe.Tip			L.Thigh.Upper.Post			L.Thigh.Lower.Ant			L.Thigh.Lower.Post			L.Thigh.Upper.Ant			L.Knee.Lat			L.Knee.Med			L.Shank.Upper.Post			L.Shank.Lower.Ant			L.Shank.Lower.Post			L.Shank.Upper.Ant			L.Ankle.Lat			L.Ankle.Med			L.Heel.Upper			L.Heel.Med			L.Heel.Lat			L.Toe.Lat			L.Toe.Med			L.Toe.Tip			Cervical.Spine			Back			
		X1	Y1	Z1	X2	Y2	Z2	X3	Y3	Z3	X4	Y4	Z4	X5	Y5	Z5	X6	Y6	Z6	X7	Y7	Z7	X8	Y8	Z8	X9	Y9	Z9	X10	Y10	Z10	X11	Y11	Z11	X12	Y12	Z12	X13	Y13	Z13	X14	Y14	Z14	X15	Y15	Z15	X16	Y16	Z16	X17	Y17	Z17	X18	Y18	Z18	X19	Y19	Z19	X20	Y20	Z20	X21	Y21	Z21	X22	Y22	Z22	X23	Y23	Z23	X24	Y24	Z24	X25	Y25	Z25	X26	Y26	Z26	X27	Y27	Z27	X28	Y28	Z28	X29	Y29	Z29	X30	Y30	Z30	X31	Y31	Z31	X32	Y32	Z32	X33	Y33	Z33	X34	Y34	Z34	X35	Y35	Z35	X36	Y36	Z36	X37	Y37	Z37	X38	Y38	Z38	X39	Y39	Z39	X40	Y40	Z40	X41	Y41	Z41	X42	Y42	Z42	X43	Y43	Z43	X44	Y44	Z44	X45	Y45	Z45	X46	Y46	Z46	X47	Y47	Z47	X48	Y48	Z48	X49	Y49	Z49	X50	Y50	Z50	X51	Y51	Z51	

226	0.9375	-74.482	1265.3	254.49	-178.75	1490.2	448.01	-226.34	1481.5	100.39	-203.75	1816.3	263.18	-118.73	977.66	401.01	-114.87	1003.2	152.43	-328.4	1015.8	292.39	-319.59	1019.6	212.45	-217.2	900.66	455.86	-217.16	913.39	76.398	-198.96	1069.1	439.68	-218.76	1082.5	103.38	-343.03	975.11	252.31	-279.83	655.36	434.87	-223.84	559.62	397.77	-298.96	567.5	419.03	-191.43	664.01	421.11	-300.4	494.09	408.3	-320.67	500.97	273.66	-446.36	303.63	394.65	-406.37	209.37	350.35	-468.72	238.12	373.73	-386.84	274.95	378.09	-493.18	125.51	349.6	-473.27	137.26	262.14	-566.23	105.92	294.09	-561.64	74.419	264.5	-567.22	73.886	328.5	-402.47	39.715	381.24	-363.47	36.693	262.09	-299.62	43.564	311.44	-161.84	673.82	93.171	-52.723	610.07	94.872	-123.09	594.47	107.71	-96.033	687.71	76.456	-52.214	521.47	111.08	-40.706	513.2	239.33	-70.564	323.65	118.67	25.396	267.89	113.21	-36.8	253.53	125.03	-8.0173	336.76	106.07	70.431	116.54	131.24	75.321	131.57	223.74	10.884	60.929	181.38	29.227	42.296	216.91	25.599	35.437	155.25	196.99	93.781	108.8	226.36	119.3	221.14	272.18	149.7	170.45	-252.51	1538	286.1	-334.44	1281.3	269.81
227	0.94167	-68.708	1264.8	253.94	-173.17	1489.7	447.41	-220.79	1480.9	99.788	-198.16	1815.9	262.71	-112.74	977.28	400.68	-108.71	1002.8	152.06	-322.35	1015.3	291.88	-313.55	1019	211.91	-211.24	900.25	455.56	-210.97	912.76	76.148	-193.1	1068.7	439.31	-212.8	1081.9	102.95	-337	974.57	251.81	-273.73	654.88	434.72	-217.61	559.12	397.88	-292.78	567	418.93	-185.28	663.58	421.11	-294.42	493.52	408.31	-314.38	500.4	273.73	-442.61	304.7	394.81	-403.78	209.92	350.52	-465.78	239.46	373.9	-383.44	275.28	378.25	-491.76	127.12	349.9	-471.57	138.7	262.46	-564.96	108.47	294.42	-560.77	77.068	264.69	-566.36	76.342	328.72	-402.15	39.822	381.31	-363.34	36.752	262.15	-299.4	43.265	311.39	-155.73	673.27	93.11	-46.585	609.54	95.248	-117.02	593.98	107.77	-89.782	687.21	76.656	-46.144	520.9	111.38	-35.288	512.57	239.48	-65.521	323.18	118.57	30.115	266.86	113.84	-32.233	252.86	125.11	-2.8153	335.91	106.56	74.07	115.55	131.9	78.425	130.37	224.47	13.933	60.746	181.59	31.829	41.846	217.13	28.487	35.15	155.42	200.48	92.214	110.3	229.24	117.29	222.81	275.58	147.52	172.48	-246.97	1537.5	285.49	-328.7	1280.7	269.27
228	0.94583	-62.922	1264.5	253.38	-167.61	1489.3	446.8	-215.23	1480.5	99.163	-192.57	1815.5	262.23	-106.71	976.93	400.35	-102.52	1002.4	151.67	-316.27	1014.8	291.38	-307.49	1018.6	211.38	-205.23	899.85	455.24	-204.77	912.16	75.902	-187.22	1068.3	438.94	-206.8	1081.4	102.51	-330.94	974.07	251.31	-267.47	654.38	434.57	-211.18	558.61	398.03	-286.41	566.47	418.84	-178.99	663.15	421.11	-288.22	492.92	408.34	-307.87	499.79	273.82	-438.69	305.82	394.99	-401.05	210.53	350.71	-462.68	240.88	374.09	-379.88	275.65	378.42	-490.23	128.84	350.23	-469.73	140.24	262.81	-563.54	111.19	294.75	-559.78	79.906	264.89	-565.38	78.975	328.94	-401.81	39.955	381.38	-363.2	36.827	262.2	-299.18	42.972	311.33	-149.58	672.77	93.036	-40.399	609.06	95.626	-110.89	593.53	107.79	-83.481	686.76	76.87	-40.04	520.36	111.67	-29.844	511.98	239.59	-60.605	322.77	118.44	34.648	265.8	114.46	-27.863	252.24	125.15	2.2684	335.06	107.04	77.359	114.5	132.52	81.189	129.1	225.16	16.574	60.647	181.76	33.963	41.454	217.33	30.897	34.917	155.57	203.57	90.409	111.78	231.75	115	224.46	278.65	144.99	174.48	-241.42	1537	284.87	-322.95	1280.1	268.69
229	0.95	-57.123	1264.2	252.83	-162.07	1488.9	446.17	-209.66	1480	98.518	-186.96	1815.1	261.73	-100.66	976.62	400	-96.306	1002.1	151.28	-310.17	1014.3	290.88	-301.42	1018.1	210.85	-199.16	899.48	454.91	-198.55	911.61	75.658	-181.31	1067.9	438.56	-200.77	1080.8	102.08	-324.86	973.6	250.82	-261.05	653.86	434.43	-204.54	558.11	398.2	-279.84	565.9	418.76	-172.54	662.74	421.14	-281.8	492.3	408.39	-301.13	499.13	273.93	-434.58	307	395.18	-398.16	211.19	350.92	-459.41	242.38	374.3	-376.16	276.07	378.62	-488.57	130.66	350.58	-467.72	141.86	263.19	-561.97	114.1	295.1	-558.65	82.944	265.1	-564.29	81.797	329.17	-401.44	40.119	381.45	-363.05	36.92	262.25	-298.97	42.684	311.25	-143.41	672.3	92.948	-34.182	608.64	95.998	-104.74	593.13	107.8	-77.145	686.36	77.092	-33.918	519.87	111.95	-24.388	511.41	239.66	-55.804	322.43	118.28	39.016	264.74	115.06	-23.664	251.65	125.16	7.2443	334.23	107.5	80.341	113.42	133.1	83.661	127.79	225.81	18.866	60.632	181.91	35.692	41.128	217.48	32.887	34.742	155.68	206.29	88.394	113.21	233.94	112.47	226.07	281.44	142.13	176.43	-235.88	1536.6	284.22	-317.19	1279.6	268.09
230	0.95417	-51.312	1263.9	252.27	-156.54	1488.5	445.53	-204.08	1479.6	97.855	-181.35	1814.8	261.22	-94.575	976.35	399.64	-90.065	1001.8	150.89	-304.04	1013.8	290.39	-295.32	1017.7	210.32	-193.05	899.12	454.57	-192.32	911.1	75.415	-175.38	1067.6	438.19	-194.7	1080.3	101.63	-318.77	973.17	250.33	-254.48	653.3	434.3	-197.69	557.59	398.4	-273.07	565.3	418.69	-165.94	662.33	421.17	-275.15	491.66	408.47	-294.17	498.44	274.07	-430.29	308.24	395.37	-395.12	211.92	351.15	-455.97	243.95	374.52	-372.28	276.55	378.84	-486.78	132.6	350.96	-465.54	143.57	263.6	-560.22	117.19	295.46	-557.37	86.193	265.3	-563.07	84.82	329.41	-401.05	40.32	381.51	-362.9	37.036	262.3	-298.77	42.399	311.16	-137.22	671.89	92.841	-27.949	608.26	96.356	-98.577	592.77	107.77	-70.786	686.02	77.315	-27.793	519.41	112.2	-18.933	510.87	239.7	-51.104	322.14	118.08	43.243	263.67	115.64	-19.61	251.1	125.14	12.123	333.42	107.95	83.06	112.32	133.62	85.892	126.47	226.41	20.865	60.699	182.02	37.076	40.874	217.6	34.517	34.627	155.76	208.69	86.203	114.59	235.86	109.75	227.6	283.99	139	178.29	-230.35	1536.2	283.55	-311.42	1279.1	267.46
231	0.95833	-45.488	1263.7	251.72	-151.04	1488.2	444.88	-198.48	1479.2	97.173	-175.74	1814.6	260.68	-88.467	976.12	399.26	-83.804	1001.5	150.49	-297.9	1013.4	289.91	-289.21	1017.3	209.8	-186.89	898.79	454.22	-186.07	910.65	75.173	-169.43	1067.4	437.81	-188.58	1079.9	101.18	-312.66	972.78	249.84	-247.75	652.72	434.18	-190.62	557.08	398.64	-266.1	564.65	418.63	-159.19	661.95	421.23	-268.28	490.99	408.57	-286.97	497.69	274.22	-425.79	309.53	395.58	-391.9	212.71	351.4	-452.33	245.61	374.76	-368.21	277.09	379.08	-484.83	134.66	351.37	-463.18	145.38	264.04	-558.27	120.49	295.82	-555.92	89.663	265.51	-561.69	88.057	329.65	-400.64	40.566	381.57	-362.73	37.18	262.33	-298.58	42.116	311.06	-131.03	671.52	92.715	-21.716	607.92	96.694	-92.411	592.46	107.71	-64.42	685.72	77.534	-21.68	518.99	112.41	-13.495	510.37	239.71	-46.49	321.92	117.86	47.349	262.62	116.17	-15.677	250.61	125.07	16.916	332.63	108.36	85.555	111.21	134.09	87.928	125.15	226.96	22.622	60.846	182.1	38.175	40.696	217.69	35.843	34.572	155.8	210.82	83.866	115.89	237.55	106.87	229.05	286.34	135.65	180.03	-224.81	1535.8	282.86	-305.64	1278.7	266.82
232	0.9625	-39.654	1263.5	251.17	-145.55	1488	444.21	-192.86	1478.9	96.475	-170.12	1814.4	260.13	-82.339	975.92	398.88	-77.528	1001.3	150.09	-291.73	1013	289.43	-283.09	1017	209.28	-180.69	898.47	453.86	-179.82	910.26	74.929	-163.47	1067.1	437.43	-182.43	1079.5	100.73	-306.54	972.43	249.36	-240.86	652.1	434.06	-183.35	556.56	398.91	-258.92	563.97	418.59	-152.29	661.57	421.31	-261.17	490.3	408.7	-279.52	496.91	274.41	-421.08	310.9	395.8	-388.49	213.57	351.67	-448.48	247.36	375.01	-363.96	277.69	379.34	-482.72	136.86	351.82	-460.61	147.28	264.5	-556.12	124	296.19	-554.29	93.366	265.71	-560.15	91.518	329.89	-400.2	40.866	381.62	-362.53	37.358	262.35	-298.39	41.834	310.95	-124.84	671.2	92.565	-15.496	607.63	97.003	-86.258	592.19	107.62	-58.058	685.48	77.741	-15.594	518.62	112.6	-8.0837	509.89	239.67	-41.951	321.75	117.6	51.354	261.59	116.66	-11.844	250.16	124.97	21.631	331.89	108.73	87.86	110.12	134.49	89.809	123.85	227.45	24.18	61.069	182.14	39.041	40.595	217.75	36.916	34.576	155.82	212.7	81.416	117.09	239.06	103.89	230.37	288.52	132.11	181.63	-219.28	1535.5	282.14	-299.85	1278.2	266.15
